<?xml version="1.0" encoding="utf-8"?>
<!-- Generator: Adobe Illustrator 21.0.0, SVG Export Plug-In . SVG Version: 6.00 Build 0)  -->
<svg version="1.1" id="Layer_1" xmlns="http://www.w3.org/2000/svg" xmlns:xlink="http://www.w3.org/1999/xlink" x="0px" y="0px"
	 viewBox="0 0 198.3 45.4" style="enable-background:new 0 0 198.3 45.4;" xml:space="preserve">
<style type="text/css">
	.st0{fill:#FF6B81;}
</style>
<g>
	<g>
		<path d="M69.8,6.1h-7.3L53.1,33h6.1l2-6.1h9.7l2,6.1H79L69.8,6.1z M62.7,22.4L66,12.2h0.2l3.3,10.2H62.7z"/>
		<path d="M82.2,40.5V12.8h5.5v3.4h0.2c0.2-0.5,0.6-1.1,1.1-1.7c0.5-0.6,1.1-1,1.8-1.4c0.8-0.4,1.7-0.6,2.8-0.6
			c1.5,0,2.8,0.4,4.1,1.1c1.2,0.8,2.2,1.9,3,3.5c0.7,1.5,1.1,3.5,1.1,5.8c0,2.2-0.4,4.1-1.1,5.7c-0.7,1.5-1.7,2.7-2.9,3.5
			c-1.2,0.8-2.6,1.2-4.2,1.2c-1.1,0-2-0.2-2.8-0.5c-0.8-0.4-1.4-0.8-1.9-1.4c-0.5-0.5-0.8-1.1-1.1-1.7h-0.2v10.8H82.2z M87.6,22.9
			c0,1.2,0.2,2.2,0.5,3.1c0.3,0.9,0.8,1.6,1.4,2.1c0.6,0.5,1.4,0.7,2.3,0.7c0.9,0,1.7-0.3,2.3-0.8c0.6-0.5,1.1-1.2,1.4-2.1
			c0.3-0.9,0.5-1.9,0.5-3.1c0-1.2-0.2-2.2-0.5-3.1c-0.3-0.9-0.8-1.6-1.4-2.1c-0.6-0.5-1.4-0.7-2.3-0.7c-0.9,0-1.7,0.2-2.3,0.7
			c-0.6,0.5-1.1,1.2-1.4,2C87.8,20.6,87.6,21.7,87.6,22.9z"/>
		<path d="M105.5,40.5V12.8h5.5v3.4h0.2c0.2-0.5,0.6-1.1,1.1-1.7c0.5-0.6,1.1-1,1.8-1.4c0.8-0.4,1.7-0.6,2.8-0.6
			c1.5,0,2.8,0.4,4.1,1.1c1.2,0.8,2.2,1.9,3,3.5c0.7,1.5,1.1,3.5,1.1,5.8c0,2.2-0.4,4.1-1.1,5.7c-0.7,1.5-1.7,2.7-2.9,3.5
			c-1.2,0.8-2.6,1.2-4.2,1.2c-1.1,0-2-0.2-2.8-0.5c-0.8-0.4-1.4-0.8-1.9-1.4c-0.5-0.5-0.8-1.1-1.1-1.7h-0.2v10.8H105.5z M111,22.9
			c0,1.2,0.2,2.2,0.5,3.1c0.3,0.9,0.8,1.6,1.4,2.1c0.6,0.5,1.4,0.7,2.3,0.7c0.9,0,1.7-0.3,2.3-0.8c0.6-0.5,1.1-1.2,1.4-2.1
			c0.3-0.9,0.5-1.9,0.5-3.1c0-1.2-0.2-2.2-0.5-3.1c-0.3-0.9-0.8-1.6-1.4-2.1c-0.6-0.5-1.4-0.7-2.3-0.7c-0.9,0-1.7,0.2-2.3,0.7
			c-0.6,0.5-1.1,1.2-1.4,2C111.2,20.6,111,21.7,111,22.9z"/>
		<path d="M147,12.8L140,33h-6.3l-7.1-20.2h5.9l4.2,14.4h0.2l4.2-14.4H147z"/>
		<path d="M152.7,10.2c-0.8,0-1.5-0.3-2.1-0.8c-0.6-0.6-0.9-1.2-0.9-2c0-0.8,0.3-1.4,0.9-2c0.6-0.6,1.3-0.8,2.1-0.8
			c0.8,0,1.6,0.3,2.1,0.8c0.6,0.6,0.9,1.2,0.9,2c0,0.8-0.3,1.4-0.9,2C154.3,9.9,153.6,10.2,152.7,10.2z M149.9,33V12.8h5.6V33H149.9
			z"/>
		<path d="M165.6,6.1V33H160V6.1H165.6z"/>
		<path d="M175.6,6.1V33H170V6.1H175.6z"/>
		<path d="M185.8,33.4c-1.3,0-2.4-0.2-3.4-0.7c-1-0.5-1.8-1.1-2.4-2c-0.6-0.9-0.9-2-0.9-3.3c0-1.1,0.2-2.1,0.6-2.8
			c0.4-0.8,1-1.4,1.7-1.8s1.5-0.8,2.4-1.1c0.9-0.2,1.9-0.4,2.9-0.5c1.2-0.1,2.1-0.2,2.8-0.3c0.7-0.1,1.2-0.3,1.6-0.5
			c0.3-0.2,0.5-0.5,0.5-1v-0.1c0-0.8-0.3-1.5-0.8-1.9c-0.5-0.5-1.3-0.7-2.2-0.7c-1,0-1.8,0.2-2.4,0.7c-0.6,0.4-1,1-1.2,1.7l-5.2-0.4
			c0.3-1.2,0.8-2.3,1.5-3.2c0.8-0.9,1.8-1.6,3-2.1c1.2-0.5,2.6-0.7,4.2-0.7c1.1,0,2.2,0.1,3.2,0.4c1,0.3,1.9,0.7,2.7,1.2
			c0.8,0.6,1.4,1.3,1.9,2.1c0.5,0.9,0.7,1.9,0.7,3.1V33h-5.3v-2.8h-0.2c-0.3,0.6-0.8,1.2-1.3,1.7c-0.5,0.5-1.2,0.8-2,1.1
			C187.7,33.2,186.8,33.4,185.8,33.4z M187.4,29.5c0.8,0,1.5-0.2,2.2-0.5c0.6-0.3,1.1-0.8,1.5-1.3c0.4-0.6,0.5-1.2,0.5-1.9v-2.1
			c-0.2,0.1-0.4,0.2-0.7,0.3c-0.3,0.1-0.6,0.2-1,0.2c-0.4,0.1-0.8,0.1-1.1,0.2c-0.4,0.1-0.7,0.1-1,0.2c-0.7,0.1-1.2,0.2-1.7,0.5
			c-0.5,0.2-0.9,0.5-1.1,0.8c-0.3,0.4-0.4,0.8-0.4,1.3c0,0.8,0.3,1.3,0.8,1.7C185.9,29.3,186.6,29.5,187.4,29.5z"/>
	</g>
	<path class="st0" d="M46.8,19.6L38.1,4.4c-1.1-1.9-3.1-3-5.2-3H15.4c-2.2,0-4.1,1.1-5.2,3L1.3,19.6c-1.1,1.9-1.1,4.1,0,6L10,40.8
		c1.1,1.9,3,3,5.2,3h17.5c2.1,0,4.1-1.1,5.2-3l8.7-15.2C47.9,23.7,47.9,21.5,46.8,19.6z M12.2,25.4C12.1,25.3,12,25.2,12,25v-3.3
		c0-0.2,0.1-0.3,0.2-0.4c0.1-0.1,0.2-0.2,0.4-0.2h5.7l-2.5,4.3h-3.2C12.4,25.6,12.3,25.5,12.2,25.4z M16.2,31.6l-1.8,1.3
		C14.3,33,14.2,33,14.1,33C14,32.9,14,32.8,14,32.6l0.2-2.1c0-0.2,0.1-0.2,0.2-0.3c0.1-0.1,0.2-0.1,0.3,0l1.4,0.8
		c0.1,0.1,0.2,0.2,0.2,0.3C16.4,31.5,16.4,31.6,16.2,31.6z M17.1,30.5c-0.2,0.1-0.3,0-0.4-0.1l-1.4-0.8c-0.1-0.1-0.2-0.2-0.2-0.3
		c0-0.1,0-0.3,0.1-0.4l6.5-11.5c0.1-0.1,0.2-0.2,0.3-0.2c0.2,0,0.3,0,0.4,0.1l1.4,0.8c0.1,0.1,0.2,0.2,0.3,0.3c0,0.2,0,0.3-0.1,0.4
		l-6.6,11.4C17.3,30.4,17.2,30.5,17.1,30.5z M21.7,25.6l2.5-4.3h1.4l2,4.3H21.7z M29.8,26.9c-0.2-0.1-0.9-1.4-2-3.7
		c-0.7-1.6-1.4-3.2-2.1-4.8l-0.5-1.2c-0.7-1.5-1.2-2.6-1.4-3.3c-0.5-1.2-0.5-1.9-0.3-2.1c0.2-0.1,0.5,0.2,0.9,0.9
		c0.3,0.4,0.8,1.2,1.4,2.4c0.6,1,1,1.7,1.3,2.1c0.8,1.2,2.2,3.7,4.2,7.6l0.3,0.6c0.2,0.3,0.2,0.5-0.1,0.9c-0.2,0.2-0.4,0.4-0.6,0.5
		l-0.1,0.1c-0.2,0.1-0.3,0.1-0.4,0.2C30.2,27,30,27,29.8,26.9z M31.7,29.8l-0.9-1.3c-0.1-0.2-0.1-0.3-0.1-0.4
		c0.1-0.2,0.2-0.2,0.3-0.3l0.8-0.4c0.2-0.1,0.3-0.1,0.5,0c0.2,0.1,0.3,0.2,0.4,0.3l0.7,1.3c0.1,0.2,0.1,0.3,0,0.5
		c0,0.2-0.2,0.3-0.3,0.4l-0.6,0.3c-0.2,0.1-0.3,0.1-0.5,0.1C31.9,30.1,31.8,30,31.7,29.8z M34.9,33.3c-0.1-0.1-0.2-0.2-0.3-0.3
		s-0.3-0.2-0.5-0.3c-0.3-0.1-0.5-0.2-0.7-0.3c-0.2-0.1-0.5-0.3-0.6-0.5c-0.2-0.3-0.3-0.7-0.2-0.9c0-0.2,0.2-0.3,0.4-0.5l0,0
		c0.6-0.3,1-0.4,1.4-0.1c0.3,0.2,0.5,0.5,0.6,1.1c0.1,0.4,0.1,0.8,0.1,1.3L34.9,33.3z M36.1,25.1c0,0.1,0,0.2-0.2,0.4
		c-0.1,0.1-0.2,0.2-0.4,0.2h-2.9c0-0.2-0.1-0.4-0.2-0.5l-1-1.9c-0.4-0.8-0.8-1.5-1-2h5.1c0.2,0,0.3,0.1,0.4,0.2
		c0.1,0.1,0.2,0.2,0.2,0.4C36.1,21.9,36.1,25.1,36.1,25.1z"/>
</g>
</svg>
